<svg width="76" height="12" viewBox="0 0 76 12" fill="none" xmlns="http://www.w3.org/2000/svg">
<path d="M3.78409 9H0.958801V0.272727H3.87357C4.72869 0.272727 5.46306 0.447443 6.0767 0.796875C6.69034 1.14347 7.16051 1.64205 7.48721 2.29261C7.81676 2.94034 7.98153 3.71733 7.98153 4.62358C7.98153 5.53267 7.81534 6.31392 7.48295 6.96733C7.1534 7.62074 6.67613 8.12358 6.05113 8.47585C5.42613 8.82528 4.67045 9 3.78409 9ZM2.27556 7.84943H3.71164C4.37642 7.84943 4.92897 7.72443 5.36931 7.47443C5.80965 7.22159 6.1392 6.85653 6.35795 6.37926C6.5767 5.89915 6.68607 5.31392 6.68607 4.62358C6.68607 3.93892 6.5767 3.35795 6.35795 2.88068C6.14204 2.40341 5.8196 2.04119 5.39062 1.79403C4.96164 1.54687 4.42897 1.4233 3.79261 1.4233H2.27556V7.84943Z" fill="black"/>
<path d="M13.663 6.28551V2.45455H14.9414V9H13.6886V7.86648H13.6204C13.4698 8.21591 13.2283 8.5071 12.8959 8.74006C12.5664 8.97017 12.1559 9.08523 11.6644 9.08523C11.244 9.08523 10.8718 8.9929 10.5479 8.80824C10.2269 8.62074 9.97407 8.34375 9.78941 7.97727C9.60759 7.6108 9.51668 7.15767 9.51668 6.6179V2.45455H10.7908V6.46449C10.7908 6.91051 10.9144 7.26562 11.1616 7.52983C11.4087 7.79403 11.7298 7.92614 12.1246 7.92614C12.3633 7.92614 12.6005 7.86648 12.8363 7.74716C13.0749 7.62784 13.2724 7.44744 13.4286 7.20597C13.5877 6.96449 13.6658 6.65767 13.663 6.28551Z" fill="black"/>
<path d="M16.6534 9V2.45455H17.8764V3.51989H17.9574C18.0937 3.15909 18.3168 2.87784 18.6264 2.67614C18.9361 2.47159 19.3068 2.36932 19.7386 2.36932C20.1761 2.36932 20.5426 2.47159 20.8381 2.67614C21.1364 2.88068 21.3565 3.16193 21.4986 3.51989H21.5668C21.723 3.17045 21.9716 2.89205 22.3125 2.68466C22.6534 2.47443 23.0597 2.36932 23.5312 2.36932C24.125 2.36932 24.6094 2.5554 24.9844 2.92756C25.3622 3.29972 25.5511 3.8608 25.5511 4.6108V9H24.277V4.73011C24.277 4.28693 24.1562 3.96591 23.9148 3.76705C23.6733 3.56818 23.3849 3.46875 23.0497 3.46875C22.6349 3.46875 22.3125 3.59659 22.0824 3.85227C21.8523 4.10511 21.7372 4.4304 21.7372 4.82812V9H20.4673V4.64915C20.4673 4.29403 20.3565 4.00852 20.1349 3.79261C19.9133 3.5767 19.625 3.46875 19.2699 3.46875C19.0284 3.46875 18.8054 3.53267 18.6008 3.66051C18.3991 3.78551 18.2358 3.96023 18.1108 4.18466C17.9886 4.40909 17.9276 4.66903 17.9276 4.96449V9H16.6534Z" fill="black"/>
<path d="M27.2589 9V2.45455H28.4819V3.51989H28.5628C28.6992 3.15909 28.9222 2.87784 29.2319 2.67614C29.5415 2.47159 29.9123 2.36932 30.3441 2.36932C30.7816 2.36932 31.1481 2.47159 31.4435 2.67614C31.7418 2.88068 31.962 3.16193 32.104 3.51989H32.1722C32.3285 3.17045 32.5771 2.89205 32.918 2.68466C33.2589 2.47443 33.6651 2.36932 34.1367 2.36932C34.7305 2.36932 35.2148 2.5554 35.5898 2.92756C35.9677 3.29972 36.1566 3.8608 36.1566 4.6108V9H34.8825V4.73011C34.8825 4.28693 34.7617 3.96591 34.5202 3.76705C34.2788 3.56818 33.9904 3.46875 33.6552 3.46875C33.2404 3.46875 32.918 3.59659 32.6878 3.85227C32.4577 4.10511 32.3427 4.4304 32.3427 4.82812V9H31.0728V4.64915C31.0728 4.29403 30.962 4.00852 30.7404 3.79261C30.5188 3.5767 30.2305 3.46875 29.8753 3.46875C29.6339 3.46875 29.4109 3.53267 29.2063 3.66051C29.0046 3.78551 28.8413 3.96023 28.7163 4.18466C28.5941 4.40909 28.533 4.66903 28.533 4.96449V9H27.2589Z" fill="black"/>
<path d="M38.4354 11.4545C38.245 11.4545 38.0717 11.4389 37.9155 11.4077C37.7592 11.3793 37.6427 11.348 37.566 11.3139L37.8729 10.2699C38.1058 10.3324 38.3132 10.3594 38.495 10.3509C38.6768 10.3423 38.8374 10.2741 38.9766 10.1463C39.1186 10.0185 39.2436 9.80966 39.3516 9.51989L39.5092 9.08523L37.1143 2.45455H38.478L40.1356 7.53409H40.2038L41.8615 2.45455H43.2294L40.532 9.87358C40.407 10.2145 40.2479 10.5028 40.0547 10.7386C39.8615 10.9773 39.6314 11.1562 39.3643 11.2756C39.0973 11.3949 38.7876 11.4545 38.4354 11.4545Z" fill="black"/>
<path d="M52.3136 2.45455C52.2681 1.91193 52.0465 1.47301 51.6488 1.13778C51.2539 0.802557 50.7425 0.634943 50.1147 0.634943C49.6914 0.634943 49.315 0.713068 48.9854 0.869318C48.6559 1.02557 48.3974 1.23864 48.2099 1.50852C48.0224 1.77841 47.9286 2.08807 47.9286 2.4375C47.9286 2.66193 47.9712 2.86506 48.0565 3.04688C48.1445 3.22585 48.2681 3.38636 48.4272 3.52841C48.5863 3.66761 48.7752 3.78977 48.994 3.89489C49.2127 4 49.4542 4.09233 49.7184 4.17188L50.6729 4.45312C50.9996 4.55256 51.3008 4.66761 51.5763 4.7983C51.8548 4.92898 52.0962 5.08523 52.3008 5.26705C52.5082 5.44602 52.6687 5.65625 52.7823 5.89773C52.8988 6.1392 52.957 6.41761 52.957 6.73295C52.957 7.19318 52.8377 7.60511 52.5991 7.96875C52.3633 8.33239 52.0266 8.61932 51.5891 8.82955C51.1545 9.03693 50.6417 9.14062 50.0508 9.14062C49.4883 9.14062 48.9982 9.04545 48.5806 8.85511C48.1658 8.66477 47.8377 8.40057 47.5962 8.0625C47.3548 7.72159 47.2184 7.32955 47.1871 6.88636H47.7326C47.761 7.24716 47.8761 7.55966 48.0778 7.82386C48.2823 8.08523 48.5536 8.28693 48.8917 8.42898C49.2298 8.57102 49.6161 8.64205 50.0508 8.64205C50.5195 8.64205 50.9329 8.5625 51.2908 8.40341C51.6488 8.24148 51.9286 8.01705 52.1303 7.73011C52.332 7.44318 52.4329 7.10937 52.4329 6.72869C52.4329 6.42187 52.3604 6.15909 52.2155 5.94034C52.0707 5.72159 51.8562 5.53267 51.5721 5.37358C51.2908 5.21449 50.9414 5.07244 50.5238 4.94744L49.5053 4.64062C48.8235 4.43324 48.3022 4.15057 47.9414 3.79261C47.5834 3.43466 47.4045 2.98864 47.4045 2.45455C47.4045 2.00568 47.5238 1.60795 47.7624 1.26136C48.0011 0.911932 48.3249 0.637784 48.734 0.43892C49.1459 0.240057 49.6104 0.140625 50.1275 0.140625C50.6474 0.140625 51.1062 0.241477 51.5039 0.443182C51.9016 0.642045 52.217 0.916193 52.4499 1.26562C52.6829 1.61222 52.8121 2.00852 52.8377 2.45455H52.3136Z" fill="black"/>
<path d="M57.1928 2.45455V2.91903H54.3334V2.45455H57.1928ZM55.3008 0.886364H55.8164V7.45312C55.8164 7.72017 55.8675 7.93892 55.9698 8.10938C56.0749 8.27699 56.2113 8.40199 56.3789 8.48438C56.5494 8.56392 56.7312 8.60369 56.9244 8.60369C57.0181 8.60369 57.0991 8.59659 57.1673 8.58239C57.2383 8.56818 57.305 8.54972 57.3675 8.52699L57.4954 9C57.4158 9.02841 57.3278 9.05256 57.2312 9.07244C57.1346 9.09517 57.0209 9.10653 56.8903 9.10653C56.6175 9.10653 56.359 9.04545 56.1147 8.9233C55.8732 8.80114 55.6772 8.62358 55.5266 8.39062C55.3761 8.15767 55.3008 7.87642 55.3008 7.54688V0.886364Z" fill="black"/>
<path d="M61.484 9.13636C60.9442 9.13636 60.4641 8.99148 60.0437 8.7017C59.6232 8.40909 59.2923 8.0071 59.0508 7.49574C58.8093 6.98437 58.6886 6.40199 58.6886 5.74858C58.6886 5.09233 58.8093 4.50994 59.0508 4.00142C59.2923 3.49006 59.6232 3.08807 60.0437 2.79545C60.4641 2.50284 60.9442 2.35653 61.484 2.35653C62.0238 2.35653 62.5039 2.50284 62.9244 2.79545C63.3448 3.08807 63.6758 3.49006 63.9173 4.00142C64.1587 4.51278 64.2795 5.09517 64.2795 5.74858C64.2795 6.40199 64.1587 6.98437 63.9173 7.49574C63.6758 8.0071 63.3448 8.40909 62.9244 8.7017C62.5039 8.99148 62.0238 9.13636 61.484 9.13636ZM61.484 8.65483C61.9414 8.65483 62.3405 8.52557 62.6815 8.26705C63.0252 8.00852 63.2908 7.65909 63.4783 7.21875C63.6687 6.77841 63.7638 6.28835 63.7638 5.74858C63.7638 5.20881 63.6687 4.72017 63.4783 4.28267C63.288 3.84233 63.0224 3.4929 62.6815 3.23438C62.3405 2.97301 61.9414 2.84233 61.484 2.84233C61.0266 2.84233 60.6275 2.97301 60.2866 3.23438C59.9457 3.4929 59.68 3.84233 59.4897 4.28267C59.2994 4.72017 59.2042 5.20881 59.2042 5.74858C59.2042 6.28835 59.2979 6.77841 59.4854 7.21875C59.6758 7.65909 59.9414 8.00852 60.2823 8.26705C60.6261 8.52557 61.0266 8.65483 61.484 8.65483Z" fill="black"/>
<path d="M66.0703 9V2.45455H66.5774V3.47727H66.6243C66.7663 3.14205 67.0064 2.87358 67.3445 2.67188C67.6825 2.46733 68.0675 2.36506 68.4993 2.36506C68.5447 2.36506 68.5902 2.36506 68.6357 2.36506C68.6811 2.36506 68.7237 2.36648 68.7635 2.36932V2.89347C68.7294 2.89062 68.6882 2.88636 68.6399 2.88068C68.5945 2.87216 68.5376 2.8679 68.4695 2.8679C68.1058 2.8679 67.782 2.94602 67.4979 3.10227C67.2166 3.25852 66.995 3.47443 66.8331 3.75C66.6712 4.02273 66.5902 4.33523 66.5902 4.6875V9H66.0703Z" fill="black"/>
<path d="M72.5135 9.13636C71.9226 9.13636 71.4084 8.99006 70.9709 8.69744C70.5334 8.40483 70.1953 8.00426 69.9567 7.49574C69.718 6.98722 69.5987 6.40767 69.5987 5.7571C69.5987 5.10369 69.718 4.52131 69.9567 4.00994C70.1981 3.49858 70.5291 3.09517 70.9496 2.79972C71.37 2.50426 71.8501 2.35653 72.3899 2.35653C72.7564 2.35653 73.103 2.4304 73.4297 2.57812C73.7592 2.72301 74.049 2.93324 74.299 3.20881C74.5518 3.48437 74.7493 3.81676 74.8913 4.20597C75.0362 4.59517 75.1087 5.03267 75.1087 5.51847V5.84233H69.9268V5.36932H74.5888C74.5888 4.89489 74.4922 4.46733 74.299 4.08665C74.1058 3.70597 73.843 3.40341 73.5107 3.17898C73.1783 2.95455 72.8047 2.84233 72.3899 2.84233C71.9552 2.84233 71.5675 2.96449 71.2266 3.20881C70.8885 3.45028 70.62 3.77699 70.4212 4.18892C70.2251 4.60085 70.1229 5.06108 70.1143 5.5696V5.78267C70.1143 6.32812 70.2095 6.81818 70.3998 7.25284C70.593 7.68466 70.8686 8.02699 71.2266 8.27983C71.5845 8.52983 72.0135 8.65483 72.5135 8.65483C72.8714 8.65483 73.1768 8.59517 73.4297 8.47585C73.6854 8.35369 73.8942 8.20597 74.0561 8.03267C74.218 7.85938 74.3402 7.69176 74.4226 7.52983L74.8956 7.72159C74.7962 7.94034 74.6413 8.15909 74.4311 8.37784C74.2237 8.59375 73.9595 8.77415 73.6385 8.91903C73.3203 9.06392 72.9453 9.13636 72.5135 9.13636Z" fill="black"/>
</svg>
